<svg id="Layer_1" data-name="Layer 1" xmlns="http://www.w3.org/2000/svg" viewBox="0 0 17.02 16.32"><path d="M4.79,16.88a.9.9,0,0,1-.53-.17.92.92,0,0,1-.36-.94L5,11,1.28,7.69a.91.91,0,0,1-.26-1,.89.89,0,0,1,.78-.62l4.91-.45,2-4.55a.9.9,0,0,1,1.66,0l1.94,4.55,4.92.45a.9.9,0,0,1,.78.62.92.92,0,0,1-.27,1L14,11l1.09,4.82a.91.91,0,0,1-.35.93.89.89,0,0,1-1,.05L9.49,14.22,5.25,16.75A.94.94,0,0,1,4.79,16.88Zm4.7-3.76a.94.94,0,0,1,.46.13l4,2.39-1-4.55a.89.89,0,0,1,.28-.88l3.51-3.08-4.64-.42a.9.9,0,0,1-.75-.55L9.49,1.87,7.65,6.16a.89.89,0,0,1-.75.55l-4.64.42,3.51,3.08a.92.92,0,0,1,.29.88L5,15.64l4-2.39A1,1,0,0,1,9.49,13.12ZM6.67,5.75Zm5.63,0Z" transform="translate(-0.98 -0.56)"/></svg>